<svg xmlns="http://www.w3.org/2000/svg" viewBox="0 0 512 512" width="512" height="512" role="img" aria-label="Gram1n1 B³y³t">
  <defs>
    <linearGradient id="bg" x1="0" y1="0" x2="1" y2="1">
      <stop offset="0" stop-color="#f4cf5b"/>
      <stop offset="1" stop-color="#caa12f"/>
    </linearGradient>
    <linearGradient id="coin" x1="0" y1="0" x2="0" y2="1">
      <stop offset="0" stop-color="#fff3cf"/>
      <stop offset="1" stop-color="#e8be46"/>
    </linearGradient>
  </defs>
  <rect width="512" height="512" rx="112" fill="url(#bg)"/>
  <circle cx="256" cy="270" r="150" fill="url(#coin)" stroke="#a9831d" stroke-width="10"/>
  <circle cx="256" cy="270" r="118" fill="none" stroke="#c79a2a" stroke-width="6" opacity="0.6"/>
  <g fill="#6b5310">
    <path d="M256 150c-10 26-26 44-52 54 26 10 42 28 52 54 10-26 26-44 52-54-26-10-42-28-52-54z" opacity="0.0"/>
  </g>
  <path d="M256 196c-18 30-30 70-30 96 0 0 0 0 0 0 0-30 14-58 30-78 16 20 30 48 30 78 0-26-12-66-30-96z" fill="#4f8f3f"/>
  <path d="M256 300c0-34 22-58 50-66-6 34-26 58-50 66z" fill="#56a049"/>
  <path d="M256 300c0-34-22-58-50-66 6 34 26 58 50 66z" fill="#4f8f3f"/>
  <rect x="250" y="296" width="12" height="70" rx="6" fill="#3f7a33"/>
  <text x="256" y="356" font-family="Georgia, serif" font-size="92" font-weight="700" text-anchor="middle" fill="#6b5310" opacity="0.0">G</text>
</svg>
